<?xml version="1.0" encoding="UTF-8"?>
<svg width="212px" height="39px" viewBox="0 0 212 39" version="1.1" xmlns="http://www.w3.org/2000/svg" xmlns:xlink="http://www.w3.org/1999/xlink">
    <title>Header/PC/element/Logo</title>
    <defs>
        <linearGradient x1="94.2902101%" y1="34.6923474%" x2="18.9193167%" y2="70.2119778%" id="linearGradient-1">
            <stop stop-color="#6FBA2C" offset="0%"></stop>
            <stop stop-color="#009043" offset="100%"></stop>
        </linearGradient>
        <linearGradient x1="124.725114%" y1="23.038519%" x2="36.3824275%" y2="60.2382521%" id="linearGradient-2">
            <stop stop-color="#45B035" offset="0%"></stop>
            <stop stop-color="#009043" offset="100%"></stop>
        </linearGradient>
    </defs>
    <g id="Header/PC/element/Logo" stroke="none" stroke-width="1" fill="none" fill-rule="evenodd">
        <g id="調整過" fill-rule="nonzero">
            <path d="M67.7442239,35.1162007 C66.0604379,35.1162007 65.2665284,34.0640268 65.2665284,32.3683746 C65.2665284,30.6727224 65.9557466,29.3596789 67.7180511,29.3596789 C68.2573956,29.3604601 68.7922275,29.4576509 69.2971457,29.6466355 L69.4978042,28.5422876 C68.9082552,28.3695979 68.2976034,28.2788859 67.683154,28.2727224 C64.7343474,28.2727224 63.9666108,30.2553311 63.9666108,32.3422876 L63.9666108,32.3422876 C63.9666108,34.3944615 64.7954173,36.2031572 67.7006025,36.2031572 C68.3268667,36.2017498 68.9497025,36.1109736 69.5501498,35.933592 L69.4192857,34.8118528 C68.8794138,34.9964915 68.3147353,35.0990899 67.7442239,35.1162007 Z M75.0289976,34.3248963 L75.0289976,32.0727224 C75.0289976,30.7509833 74.5317136,30.107505 72.9962404,30.107505 C72.262596,30.1151659 71.5382393,30.2719894 70.8675161,30.5683746 L71.1292445,31.5683746 C71.6659657,31.27901 72.2640436,31.1210394 72.8741005,31.107505 C73.7988741,31.107505 73.9035655,31.4988094 73.9035655,32.0814181 L73.9035655,32.4727224 C71.1728659,32.5944615 70.4138536,33.0118528 70.4138536,34.4031572 C70.3950232,34.8983985 70.5890709,35.3781232 70.9472654,35.7218579 C71.3054599,36.0655926 71.7937727,36.2406825 72.2895737,36.2031572 C73.0059426,36.2202866 73.6747559,35.8469802 74.0344297,35.2292441 C74.0787494,35.5725327 74.2043448,35.9003937 74.4008494,36.1857659 L75.4215902,35.9944615 C75.1142393,35.4944018 74.9765838,34.9089992 75.0289976,34.3248963 L75.0289976,34.3248963 Z M73.8948412,34.1683746 C73.743766,34.7980106 73.1745805,35.2388563 72.5251293,35.2292441 C72.1238124,35.2292441 71.5305614,35.0727224 71.5305614,34.3596789 C71.5305614,33.6466355 72.0889153,33.4901137 73.8948412,33.3422876 L73.8948412,34.1683746 Z M78.0388741,28.7248963 L76.8610964,29.0205485 L76.8610964,30.333592 L75.9014256,30.333592 L75.9014256,31.333592 L76.8610964,31.333592 L76.8610964,34.8118528 C76.8610964,35.8727224 77.4979688,36.2379398 78.4925367,36.1857659 L79.0421663,36.1857659 L79.0421663,35.3162007 L78.6931951,35.3162007 C78.1871869,35.3162007 78.0301498,35.107505 78.0301498,34.4466355 L78.0301498,31.333592 L79.2428247,31.333592 L79.2428247,30.3683746 L78.0388741,30.3683746 L78.0388741,28.7248963 Z M83.273442,30.1596789 C82.6068197,30.1644582 81.96715,30.4225966 81.4849647,30.8814181 L81.4849647,27.9944615 L80.2635655,28.1770702 L80.2635655,36.0814181 L81.4675161,36.0814181 L81.4675161,31.8118528 C81.8272227,31.409271 82.3400402,31.1757897 82.8808494,31.1683746 C83.6922075,31.1683746 83.9364873,31.7162007 83.9364873,32.4553311 L83.9364873,36.0814181 L85.1491622,36.0814181 L85.1491622,32.1596789 C85.1491622,31.1248963 84.7478453,30.1857659 83.2647177,30.1857659 L83.273442,30.1596789 Z M90.9159112,34.2988094 L90.9159112,32.0727224 C90.9159112,30.7509833 90.4186272,30.107505 88.883154,30.107505 C88.1496468,30.1163747 87.4255312,30.273146 86.7544297,30.5683746 L87.0161581,31.5683746 C87.5536109,31.2808536 88.1512376,31.1230022 88.761014,31.107505 C89.6857877,31.107505 89.7992033,31.4988094 89.7992033,32.0814181 L89.7992033,32.4727224 C87.0597795,32.5944615 86.3094914,33.0118528 86.3094914,34.4031572 C86.2897422,34.8870951 86.4733596,35.35732 86.8161368,35.700623 C87.1589141,36.0439259 87.6297967,36.2292048 88.1154173,36.2118528 C88.8322585,36.2308844 89.5019799,35.8570711 89.8602733,35.2379398 C89.9097625,35.5799117 90.0349228,35.9066369 90.2266931,36.1944615 L91.2474338,36.0031572 C90.9534039,35.4955691 90.83105,34.907149 90.8984626,34.3248963 L90.9159112,34.2988094 Z M89.7904791,34.1422876 C89.6301298,34.7695829 89.0614964,35.2072135 88.4120429,35.2031572 C88.010726,35.2031572 87.417475,35.0466355 87.417475,34.333592 C87.417475,33.6205485 87.9758289,33.4640268 89.7904791,33.3162007 L89.7904791,34.1422876 Z M94.5190387,34.3683746 L93.001014,30.2640268 L91.6051293,30.2640268 L93.9083391,35.6814181 C93.5857836,36.5191893 93.0994408,37.2847347 92.4775573,37.933592 L93.6466108,38.4553311 C94.2603957,37.6704173 94.738101,36.7886805 95.0599441,35.8466355 C95.6444708,34.3770702 96.5605202,31.7162007 97.0403556,30.2727224 L95.7229894,30.2727224 C95.4176396,31.4640268 94.9203556,33.1944615 94.5015902,34.3944615 L94.5190387,34.3683746 Z" id="Shape" fill="#231815"></path>
            <path d="M105.764635,33.1770702 C105.764635,34.3248963 105.354594,35.1857659 103.949985,35.1857659 C102.545376,35.1857659 102.135335,34.3162007 102.135335,33.1770702 L102.135335,28.4379398 L100.896487,28.4379398 L100.896487,33.6031572 C100.896487,35.3422876 102.213854,36.2118528 103.923812,36.2118528 L103.923812,36.2118528 C105.668668,36.2118528 106.994759,35.3422876 106.994759,33.6031572 L106.994759,28.4379398 L105.764635,28.4379398 L105.764635,33.1770702 Z M111.609903,30.1857659 C110.914735,30.1886776 110.249289,30.4671229 109.760356,30.9596789 C109.72505,30.7011276 109.660667,30.4473571 109.568421,30.2031572 L108.469162,30.3509833 C108.568315,30.7431462 108.615247,31.1466114 108.608751,31.5509833 L108.608751,36.0814181 L109.812701,36.0814181 L109.812701,31.7944615 C110.189321,31.4035275 110.708456,31.1808753 111.252207,31.1770702 C112.063565,31.1770702 112.307845,31.7248963 112.307845,32.4640268 L112.307845,36.0901137 L113.503072,36.0901137 L113.503072,32.1596789 C113.503072,31.1248963 113.101755,30.1857659 111.601179,30.1857659 L111.609903,30.1857659 Z M115.047269,36.0814181 L116.259944,36.0814181 L116.259944,30.2988094 L115.047269,30.2988094 L115.047269,36.0814181 Z M115.047269,29.4292441 L116.294841,29.4292441 L116.294841,28.333592 L115.047269,28.333592 L115.047269,29.4292441 Z M119.339615,28.7509833 L118.161837,29.0466355 L118.161837,30.3596789 L117.245788,30.3596789 L117.245788,31.333592 L118.161837,31.333592 L118.161837,34.8118528 C118.161837,35.8727224 118.79871,36.2379398 119.793277,36.1857659 L120.342907,36.1857659 L120.342907,35.3162007 L120.00266,35.3162007 C119.496652,35.3162007 119.348339,35.107505 119.348339,34.4466355 L119.348339,31.333592 L120.55229,31.333592 L120.55229,30.3683746 L119.348339,30.3683746 L119.339615,28.7509833 Z M126.205623,32.6988094 C126.205623,31.1944615 125.560026,30.0901137 123.946035,30.0901137 C122.12266,30.0901137 121.180438,31.4640268 121.180438,33.2553311 C121.180438,35.0466355 122.052866,36.2379398 124.111796,36.2379398 C124.800931,36.2508201 125.484931,36.1174332 126.11838,35.8466355 L125.891549,34.8901137 C125.354144,35.1083748 124.779345,35.2205949 124.199039,35.2205485 L124.199039,35.2205485 C123.699813,35.2783539 123.20172,35.1035927 122.848906,34.7468399 C122.496092,34.3900871 122.32794,33.8911658 122.393113,33.3944615 L126.205623,33.3944615 L126.205623,32.6988094 Z M122.410561,32.5422876 C122.403419,31.7438518 123.016639,31.0756985 123.81517,31.0118528 L123.81517,31.0118528 C124.748668,31.0118528 125.080191,31.6031572 125.088915,32.5422876 L122.410561,32.5422876 Z M132.452207,34.0988094 L132.452207,28.0118528 L131.283154,28.2031572 L131.283154,30.8118528 C130.848465,30.404582 130.274475,30.1776048 129.677886,30.1770702 C127.854512,30.1770702 127.235088,31.6379398 127.235088,33.3422876 C127.235088,35.0466355 128.002825,36.2640268 129.512125,36.2640268 L129.512125,36.2640268 C130.249262,36.2841783 130.948517,35.9389548 131.379121,35.3422876 C131.406425,35.647971 131.498614,35.944377 131.649574,36.2118528 L132.679039,36.0118528 C132.474685,35.39572 132.388847,34.7466773 132.426035,34.0988094 L132.452207,34.0988094 Z M131.326775,33.4727224 C131.331569,33.7382056 131.308174,34.0034494 131.256981,34.2640268 C130.992243,34.8480144 130.40807,35.2225646 129.765129,35.2205566 C128.805458,35.2205566 128.456487,34.3509833 128.456487,33.2814181 C128.456487,32.2118528 128.814183,31.1509697 129.895993,31.1509697 C130.434017,31.1488236 130.940334,31.4043863 131.256981,31.8379398 C131.310032,32.1246515 131.33342,32.4160333 131.326775,32.707505 L131.326775,33.4727224 Z" id="Shape" fill="#231815"></path>
            <path d="M140.7141,31.9944615 C141.452518,31.7735606 141.940652,31.0743957 141.891878,30.307505 C141.891878,28.7770702 140.618133,28.4379398 139.32694,28.4379398 L137.119697,28.4379398 L137.119697,36.0814181 L139.483977,36.0814181 C141.045623,36.0814181 142.179779,35.5162007 142.179779,33.9248963 C142.294488,32.9924766 141.645563,32.1377826 140.7141,31.9944615 Z M138.314924,29.3857659 L139.187351,29.3857659 C140.164471,29.3857659 140.7141,29.6901137 140.7141,30.4727224 L140.7141,30.4727224 C140.730714,30.7593791 140.630993,31.0406555 140.437373,31.2532659 C140.243752,31.4658762 139.972496,31.5919629 139.684635,31.6031572 L138.314924,31.6031572 L138.314924,29.3857659 Z M139.38801,35.0118528 L138.314924,35.0118528 L138.314924,32.5683746 L139.361837,32.5683746 C140.391302,32.5683746 140.940932,32.9596789 140.940932,33.7944615 C140.949656,34.8814181 140.216817,35.0553311 139.38801,35.0553311 L139.38801,35.0118528 Z M147.833113,34.2814181 L147.833113,32.0727224 C147.833113,30.7509833 147.335829,30.107505 145.800356,30.107505 C145.066656,30.1146767 144.342201,30.2715214 143.671631,30.5683746 L143.93336,31.5683746 C144.469957,31.2786977 145.068112,31.1207068 145.678216,31.107505 C146.611714,31.107505 146.716405,31.4988094 146.716405,32.0814181 L146.716405,32.4727224 C143.985705,32.5944615 143.226693,33.0118528 143.226693,34.4031572 C143.207863,34.8983985 143.40191,35.3781232 143.760105,35.7218579 C144.118299,36.0655926 144.606612,36.2406825 145.102413,36.2031572 C145.818782,36.2202866 146.487595,35.8469802 146.847269,35.2292441 C146.886366,35.5738206 147.012429,35.9029033 147.213689,36.1857659 L148.225705,35.9944615 C147.918354,35.4944018 147.780699,34.9089992 147.833113,34.3248963 L147.833113,34.2814181 Z M146.698956,34.1248963 C146.547881,34.7545323 145.978696,35.195378 145.329244,35.1857659 C144.927928,35.1857659 144.334677,35.0292441 144.334677,34.3162007 C144.334677,33.6031572 144.875582,33.4466355 146.698956,33.2988094 L146.698956,34.1248963 Z M152.41336,30.133592 C151.718192,30.1365037 151.052745,30.414949 150.563812,30.907505 C150.528507,30.6489537 150.464124,30.3951832 150.371878,30.1509833 L149.272619,30.2988094 C149.371672,30.6909904 149.418603,31.0944425 149.412207,31.4988094 L149.412207,36.0292441 L150.607434,36.0292441 L150.607434,31.7944615 C150.984054,31.4035275 151.503189,31.1808753 152.04694,31.1770702 C152.858298,31.1770702 153.102578,31.7248963 153.102578,32.4640268 L153.102578,36.0901137 L154.306528,36.0901137 L154.306528,32.1596789 C154.315253,31.1248963 153.92266,30.1857659 152.422084,30.1857659 L152.41336,30.133592 Z M158.293524,33.0727224 L160.640356,30.2727224 L159.253195,30.2727224 L157.037228,33.1248963 L157.037228,27.9944615 L155.824553,28.1770702 L155.824553,36.0814181 L157.037228,36.0814181 L157.037228,33.2379398 L159.279368,36.0727224 L160.727598,36.0727224 L158.293524,33.0727224 Z" id="Shape" fill="#231815"></path>
            <path d="M167.061426,16.8118559 L168.378792,16.8118559 C168.402883,16.8118559 168.422413,16.792387 168.422413,16.7683746 L168.239203,13.0727224 C168.234493,12.9272522 168.114776,12.8117771 167.968751,12.8118528 L166.503072,12.8118528 C166.462248,12.8094551 166.422243,12.8239645 166.392512,12.8519514 C166.362781,12.8799383 166.345964,12.9189188 166.346034,12.9596789 L166.346034,12.9596789 L166.904389,16.6727224 C166.913315,16.7523128 166.981077,16.8123486 167.061426,16.8118559 L167.061426,16.8118559 Z M173.997228,12.7944615 L172.522825,12.7944615 C172.380195,12.798978 172.265628,12.9131696 172.261096,13.0553311 L172.060438,16.7683746 L173.395253,16.7683746 C173.475299,16.7640527 173.539229,16.7003319 173.543565,16.6205485 L174.101919,12.907505 L174.101919,12.907505 C174.090993,12.8532674 174.050598,12.8096496 173.997228,12.7944615 L173.997228,12.7944615 Z M171.947022,1.57707024 L168.57945,1.57707024 C168.272857,1.55514093 168.000237,1.77025678 167.951302,2.07272241 C167.951302,2.17707024 167.881508,2.28141806 167.846611,2.37707024 C167.315646,3.83923889 166.480159,5.17281795 165.395088,6.29011371 L165.395088,7.35098328 C165.395088,7.47104518 165.492738,7.56837458 165.613195,7.56837458 L165.674265,7.56837458 L165.761508,7.51620067 C167.663782,6.48317376 169.226808,4.92527632 170.263236,3.02924415 C171.189876,4.71732329 172.539445,6.13735976 174.180438,7.15098328 L174.258956,7.20315719 L174.337475,7.20315719 C174.428827,7.20064814 174.508924,7.14164051 174.538133,7.05533111 L174.538133,5.78576589 C173.730077,4.76503405 173.107108,3.61146739 172.69731,2.37707024 C172.540273,1.99446154 172.470479,1.55098328 171.947022,1.57707024 Z M174.372372,17.2292441 L174.372372,17.2292441 C173.377804,17.5162007 172.313442,17.7683746 171.257804,17.9770702 L171.257804,11.7509833 L174.110644,11.7509833 C174.255192,11.7509833 174.372372,11.634188 174.372372,11.4901137 L174.372372,10.6205485 C174.372372,10.4764742 174.255192,10.3596789 174.110644,10.3596789 L171.257804,10.3596789 L171.257804,8.47272241 L173.438874,8.47272241 C173.508289,8.47272241 173.57486,8.44523802 173.623944,8.39631548 C173.673028,8.34739295 173.700603,8.28103976 173.700603,8.21185284 L173.700603,7.34228763 C173.700603,7.27310072 173.673028,7.20674752 173.623944,7.15782499 C173.57486,7.10890246 173.508289,7.08141806 173.438874,7.08141806 L167.061426,7.08141806 C166.991285,7.07896276 166.923272,7.10565788 166.873644,7.15512271 C166.824017,7.20458754 166.797234,7.2723769 166.799697,7.34228763 L166.799697,8.21185284 C166.799697,8.28103976 166.827272,8.34739295 166.876356,8.39631548 C166.925439,8.44523802 166.992011,8.47272241 167.061426,8.47272241 L169.25122,8.47272241 L169.25122,10.3683746 L166.39838,10.3683746 C166.328966,10.3683746 166.262394,10.395859 166.21331,10.4447815 C166.164227,10.493704 166.136652,10.5600572 166.136652,10.6292441 L166.136652,11.4988094 C166.136652,11.5679963 166.164227,11.6343495 166.21331,11.683272 C166.262394,11.7321945 166.328966,11.7596789 166.39838,11.7596789 L169.25122,11.7596789 L169.25122,18.2901137 C168.063921,18.4796206 166.866755,18.6015573 165.665541,18.6553311 L165.665541,18.6553311 C165.520992,18.6553311 165.403812,18.7721264 165.403812,18.9162007 L165.403812,20.2292441 C165.403812,20.3733184 165.520992,20.4901137 165.665541,20.4901137 L165.665541,20.4901137 C168.628174,20.272638 171.538958,19.5979328 174.293854,18.4901137 C174.390963,18.4655563 174.465488,18.3879002 174.485788,18.2901137 L174.485788,17.2553311 C174.495138,17.2351378 174.49297,17.2115063 174.4801,17.1933384 C174.46723,17.1751704 174.445613,17.1652261 174.423392,17.1672514 C174.401172,17.1692767 174.381723,17.1829639 174.372372,17.2031572 L174.372372,17.2292441 Z M183.550314,16.133592 C184.172009,14.8830808 184.643472,13.5638128 184.954924,12.2031572 C185.024718,11.7944615 184.684471,11.8466355 184.684471,11.8466355 L183.157722,11.8466355 C183.038199,12.7758301 182.824825,13.6906171 182.520849,14.5770702 C181.838034,13.4713885 181.381422,12.2419914 181.17731,10.9596789 L184.806611,10.9596789 C184.877524,10.9620363 184.94636,10.9355961 184.997347,10.8864158 C185.048334,10.8372354 185.077103,10.7695296 185.077063,10.6988094 L185.077063,2.56837458 C185.075325,2.29216652 184.959044,2.02897615 184.755794,1.84121597 C184.552543,1.6534558 184.280428,1.55784995 184.003977,1.57707024 L175.67229,1.57707024 C175.602875,1.57707024 175.536303,1.60455463 175.48722,1.65347716 C175.438136,1.7023997 175.410561,1.76875289 175.410561,1.8379398 L175.410561,20.2292441 C175.410561,20.3781209 175.531647,20.4988094 175.681014,20.4988094 C177.46892,20.3210454 179.227457,19.9208305 180.915582,19.307505 C181.015867,19.2681113 181.081664,19.1714649 181.081343,19.0640268 L181.081343,17.8640268 C181.081343,17.8640268 181.081343,17.7944615 181.002825,17.8205485 C179.72908,18.0901137 178.481508,18.2814181 177.42587,18.4118528 L177.42587,10.9944615 L178.795582,10.9944615 C179.824177,14.9866861 182.408686,18.404697 185.975664,20.4901137 L186.071631,20.4901137 C186.138743,20.4924601 186.204038,20.4681172 186.25313,20.4224479 C186.302223,20.3767785 186.331085,20.3135297 186.33336,20.2466355 L186.33336,20.2466355 L186.33336,18.6988094 C185.282025,17.9772051 184.344102,17.1039009 183.550314,16.107505 L183.550314,16.133592 Z M177.443319,3.17707024 L183.070479,3.17707024 L183.070479,5.49880937 L177.443319,5.49880937 L177.443319,3.17707024 Z M177.443319,9.4379398 L177.443319,7.07272241 L183.079203,7.07272241 L183.079203,9.4205485 L177.443319,9.4379398 Z" id="Shape" fill="#231815"></path>
            <path d="M135.226528,6.8379398 L132.399862,6.8379398 L132.399862,2.91620067 C132.4098,2.30174583 131.925432,1.79193069 131.309327,1.76837458 L130.096652,1.76837458 C129.968458,1.77629186 129.86497,1.87575574 129.852372,2.00315719 L129.852372,6.8379398 L125.629821,6.8379398 L125.629821,2.0379398 C125.632284,1.96802907 125.605501,1.90023972 125.555873,1.85077489 C125.506246,1.80131006 125.438233,1.77461493 125.368092,1.77707024 L124.172866,1.77707024 C123.540211,1.77222088 123.022104,2.2769793 123.012537,2.90750502 L123.012537,6.8379398 L119.313442,6.8379398 L119.313442,2.54228763 C119.313442,2.47310072 119.285867,2.40674752 119.236784,2.35782499 C119.1877,2.30890246 119.121128,2.28141806 119.051714,2.28141806 L117.856487,2.28141806 C117.225292,2.28141806 116.713607,2.79142413 116.713607,3.4205485 L116.713607,6.8379398 L114.785541,6.8379398 C114.730009,6.8379398 114.676752,6.85992732 114.637485,6.89906534 C114.598218,6.93820337 114.576158,6.99128593 114.576158,7.04663545 L114.576158,8.17707024 C114.576158,8.23241976 114.598218,8.28550232 114.637485,8.32464035 C114.676752,8.36377837 114.730009,8.38576589 114.785541,8.38576589 L116.713607,8.38576589 L116.713607,19.3596789 C116.718356,19.9868322 117.227269,20.4940759 117.856487,20.4988094 L134.327928,20.4988094 C134.472476,20.4988094 134.589656,20.3820141 134.589656,20.2379398 L134.589656,19.2031572 C134.592021,19.1324763 134.565494,19.0638669 134.516152,19.0130472 C134.466809,18.9622275 134.398881,18.9335527 134.327928,18.933592 L119.322166,18.933592 L119.322166,8.39446154 L123.012537,8.39446154 L123.012537,14.1857659 C123.017286,14.8129191 123.526199,15.3201629 124.155417,15.3248963 L131.318051,15.3248963 C131.947269,15.3201629 132.456183,14.8129191 132.460932,14.1857659 L132.460932,8.39446154 L135.226528,8.39446154 C135.338747,8.38979711 135.427376,8.29771311 135.427376,8.18576589 L135.427376,7.05533111 C135.42955,6.99996886 135.409725,6.94594287 135.372085,6.90516324 C135.334444,6.8643836 135.282077,6.84019859 135.226528,6.8379398 Z M129.800026,13.7509833 L125.629821,13.7509833 L125.629821,8.39446154 L129.887269,8.39446154 L129.800026,13.7509833 Z" id="Shape" fill="#231815"></path>
            <path d="M197.866858,6.11620067 L195.703236,6.11620067 C194.540878,7.86556519 192.869611,9.21882418 190.913607,9.99446154 L190.913607,9.99446154 C190.913607,9.99446154 190.826364,10.0553311 190.81764,10.0814181 L190.81764,10.0814181 L190.81764,11.133592 C190.81764,11.133592 190.75657,11.6031572 191.218956,11.4466355 C191.902109,11.221375 192.569526,10.9512173 193.216817,10.6379398 L193.216817,19.333592 C193.216817,19.9627163 193.728502,20.4727224 194.359697,20.4727224 L195.554924,20.4727224 C195.699472,20.4727224 195.816652,20.3559271 195.816652,20.2118528 L195.816652,8.90750502 C196.671014,8.14733189 197.411412,7.26879807 198.01517,6.29880937 C198.189656,6.11620067 197.866858,6.11620067 197.866858,6.11620067 Z M197.866858,1.56837458 L195.711961,1.56837458 C194.548353,3.31660894 192.877482,4.66954764 190.922331,5.44663545 L190.922331,5.44663545 C190.922331,5.44663545 190.826364,5.49880937 190.826364,5.53359198 L190.826364,5.53359198 L190.826364,6.60315719 C190.826364,6.60315719 190.765294,7.07272241 191.227681,6.91620067 C194.053113,6.13617609 196.483604,4.3309211 198.041343,1.85533111 C198.189656,1.54228763 197.866858,1.57707024 197.866858,1.57707024 L197.866858,1.56837458 Z M200.178792,3.81185284 L210.508339,3.81185284 C210.563871,3.81185284 210.617128,3.78986533 210.656395,3.7507273 C210.695662,3.71158928 210.717722,3.65850672 210.717722,3.60315719 L210.717722,2.47272241 C210.717722,2.35746298 210.623978,2.26402676 210.508339,2.26402676 L200.178792,2.26402676 C200.063153,2.26402676 199.969409,2.35746298 199.969409,2.47272241 L199.969409,3.61185284 C199.969409,3.72711227 200.063153,3.8205485 200.178792,3.8205485 L200.178792,3.81185284 Z M211.433113,7.49011371 L198.913771,7.49011371 C198.858239,7.49011371 198.804982,7.51210123 198.765715,7.55123926 C198.726448,7.59037728 198.704389,7.64345984 198.704389,7.69880937 L198.704389,8.8379398 C198.704389,8.89328933 198.726448,8.94637189 198.765715,8.98550991 C198.804982,9.02464794 198.858239,9.04663545 198.913771,9.04663545 L206.076405,9.04663545 L206.076405,18.2901137 C206.076405,18.8553311 205.910644,19.1596789 204.98587,19.1596789 L204.052372,19.1596789 C203.991302,19.1596789 203.973854,19.1596789 203.973854,19.2205485 L203.973854,20.3248963 C203.973854,20.4401557 204.067597,20.533592 204.183236,20.533592 L206.163648,20.533592 C208.048092,20.4814181 208.67624,20.0901137 208.67624,18.2901137 L208.67624,9.05533111 L211.398216,9.05533111 C211.513855,9.05533111 211.607649,8.96189488 211.607649,8.84663545 L211.607649,7.70750502 C211.6098,7.60728901 211.540206,7.51966868 211.441837,7.49880937 L211.433113,7.49011371 Z" id="Shape" fill="#231815"></path>
            <path d="M74.8981334,14.2727224 L74.8981334,15.2379398 C74.8972559,15.3221914 74.8456357,15.3976526 74.7672692,15.4292441 C73.5610558,15.9248503 72.3148309,16.3175629 71.0420017,16.6031572 C69.9440071,16.8676595 68.8267106,17.0450262 67.7006025,17.133592 L67.7006025,17.133592 C67.5849636,17.133592 67.4912198,17.0401557 67.4912198,16.9248963 L67.4912198,15.3857659 C67.4912198,15.2705065 67.5849636,15.1770702 67.7006025,15.1770702 L67.7006025,15.1770702 C70.0788534,15.1019664 72.4408384,14.7577289 74.7410964,14.1509833 C74.7791173,14.1345727 74.8230909,14.1401332 74.8557959,14.165487 C74.888501,14.1908408 74.9047324,14.2319527 74.8981334,14.2727224 L74.8981334,14.2727224 Z M74.8981334,8.86402676 L74.8981334,12.0553311 C74.9004801,12.3535457 74.7826619,12.6402255 74.5710916,12.8511016 C74.3595213,13.0619777 74.0718977,13.1794093 73.7727013,13.1771045 L68.6079276,13.1771045 C68.3087312,13.1794093 68.0211076,13.0619777 67.8095373,12.8511016 C67.597967,12.6402255 67.4801488,12.3535457 67.4824611,12.0553311 L67.4824611,8.86402676 C67.4801488,8.56581213 67.597967,8.27913235 67.8095373,8.06825628 C68.0211076,7.85738021 68.3087312,7.73994858 68.6079276,7.74225334 L73.7901498,7.74225334 C74.0870536,7.74225334 74.3715505,7.86098582 74.5798466,8.07186797 C74.7881428,8.28275012 74.902809,8.56813391 74.8981334,8.86402676 L74.8981334,8.86402676 Z M72.4117136,8.91620067 L69.9514667,8.91620067 L69.9514667,12.0031572 L72.4117136,12.0031572 L72.4117136,8.91620067 Z M74.8806848,8.87272241 L74.8806848,12.0640268 C74.8830316,12.3622414 74.7652133,12.6489212 74.553643,12.8597972 C74.3420727,13.0706733 74.0544491,13.1881049 73.7552527,13.1858002 L68.6079276,13.1858002 C68.3087312,13.1881049 68.0211076,13.0706733 67.8095373,12.8597972 C67.597967,12.6489212 67.4801488,12.3622414 67.4824611,12.0640268 L67.4824611,8.86402676 C67.4801488,8.56581213 67.597967,8.27913235 67.8095373,8.06825628 C68.0211076,7.85738021 68.3087312,7.73994858 68.6079276,7.74225334 L73.7901498,7.74225334 C74.0870536,7.74225334 74.3715505,7.86098582 74.5798466,8.07186797 C74.7881428,8.28275012 74.902809,8.56813391 74.8981334,8.86402676 L74.8806848,8.87272241 Z M72.4117136,8.91620067 L69.9514667,8.91620067 L69.9514667,12.0031572 L72.4117136,12.0031572 L72.4117136,8.91620067 Z M74.8806848,15.2379398 L74.8806848,14.2727224 C74.883779,14.2334083 74.8660946,14.1953286 74.8340203,14.1722398 C74.8019461,14.1491511 74.7601183,14.1443909 74.7236478,14.1596789 C72.4233899,14.7664246 70.0614048,15.1106621 67.683154,15.1857659 L67.683154,15.1857659 C67.5675151,15.1857659 67.4737712,15.2792021 67.4737712,15.3944615 L67.4737712,16.9248963 C67.4737712,17.0401557 67.5675151,17.133592 67.683154,17.133592 L67.683154,17.133592 C68.809262,17.0450262 69.9265585,16.8676595 71.0245531,16.6031572 C72.2973823,16.3175629 73.5436072,15.9248503 74.7498206,15.4292441 C74.8350554,15.4034173 74.8945612,15.3266625 74.8981334,15.2379398 L74.8806848,15.2379398 Z M84.4512198,3.07272241 L84.4512198,19.3857659 C84.4512198,20.0052853 83.9473467,20.507505 83.3257877,20.507505 L65.0833186,20.507505 C64.4637369,20.5027726 63.9626344,20.0033145 63.9578865,19.3857659 L63.9578865,3.07272241 C63.9626787,2.45179905 64.4690569,1.95098328 65.0920429,1.95098328 L83.3257877,1.95098328 C83.6242709,1.95098328 83.9105289,2.06916617 84.1215884,2.27953306 C84.3326478,2.48989996 84.4512198,2.7752187 84.4512198,3.07272241 Z M77.3147589,5.17707024 L79.1730305,5.17707024 C79.0596149,4.37707024 78.937475,3.72489632 78.8676807,3.31620067 L77.2973103,3.31620067 C77.2798618,3.67272241 77.2798618,4.31620067 77.3147589,5.17707024 Z M66.5141005,5.17707024 L75.4128659,5.17707024 C75.3256231,4.30750502 75.3081745,3.67272241 75.2994503,3.31620067 L66.5141005,3.31620067 L66.5141005,5.17707024 Z M81.8950058,3.31620067 L80.6997795,3.31620067 L81.1883391,5.92489632 C81.1883391,6.49880937 80.7434009,6.49880937 80.7434009,6.49880937 L77.4281745,6.49880937 C77.5986369,8.36355384 77.9641332,10.2054397 78.5187095,11.9944615 C78.8764057,11.3494612 79.1968186,10.6846087 79.4783803,10.0031572 C79.4936774,9.96550016 79.5238494,9.93577786 79.5618072,9.92097355 C79.5997649,9.90616924 79.6421626,9.90758794 79.6790387,9.92489632 L80.9876807,10.4553311 C80.9876807,10.4553311 81.1447177,10.4988094 81.057475,10.6814181 C80.5263665,11.777532 79.913968,12.832633 79.2253762,13.8379398 C79.8003695,15.1768946 80.5641774,16.4271861 81.4936889,17.5509833 C81.5192599,17.5688937 81.5344788,17.5980933 81.5344788,17.6292441 C81.5344788,17.660395 81.5192599,17.6895946 81.4936889,17.707505 L80.8655408,18.4379398 C80.8406764,18.467533 80.8039384,18.4846295 80.7652116,18.4846295 C80.7264847,18.4846295 80.6897468,18.467533 80.6648824,18.4379398 C79.668471,17.5073316 78.8315191,16.4205144 78.1871869,15.2205485 C77.2162686,16.4210027 76.0336476,17.4347194 74.697475,18.2118528 C74.5666108,18.3162007 74.5055408,18.1509833 74.5055408,18.1509833 L74.1565696,17.333592 C74.1565696,17.333592 74.0693268,17.2118528 74.1565696,17.1422876 C75.4688358,16.1926917 76.5979106,15.0142939 77.4892445,13.6640268 C76.5335783,11.3751946 75.8937827,8.96774523 75.5873515,6.50750502 L66.5141005,6.50750502 L66.5141005,19.1596789 L81.8950058,19.1596789 L81.8950058,3.31620067 Z M74.9156163,8.86402676 L74.9156163,12.0553311 C74.9179287,12.3535457 74.8001105,12.6402255 74.5885401,12.8511016 C74.3769698,13.0619777 74.0893463,13.1794093 73.7901498,13.1771045 L68.6079276,13.1771045 C68.3087312,13.1794093 68.0211076,13.0619777 67.8095373,12.8511016 C67.597967,12.6402255 67.4801488,12.3535457 67.4824611,12.0553311 L67.4824611,8.86402676 C67.4801488,8.56581213 67.597967,8.27913235 67.8095373,8.06825628 C68.0211076,7.85738021 68.3087312,7.73994858 68.6079276,7.74225334 L73.7901498,7.74225334 C74.0870536,7.74225334 74.3715505,7.86098582 74.5798466,8.07186797 C74.7881428,8.28275012 74.902809,8.56813391 74.8981334,8.86402676 L74.9156163,8.86402676 Z M72.4117136,8.91620067 L69.9514667,8.91620067 L69.9514667,12.0031572 L72.4117136,12.0031572 L72.4117136,8.91620067 Z M74.7323721,14.133592 C72.4321141,14.7403376 70.0701291,15.0845751 67.6918782,15.1596789 L67.6918782,15.1596789 C67.5762394,15.1596789 67.4824955,15.2531152 67.4824955,15.3683746 L67.4824955,16.8988094 C67.4824955,17.0140688 67.5762394,17.107505 67.6918782,17.107505 L67.6918782,17.107505 C68.8179863,17.0189392 69.9352828,16.8415725 71.0332774,16.5770702 C72.3061066,16.291476 73.5523315,15.8987633 74.7585449,15.4031572 C74.8369114,15.3715657 74.8885317,15.2961044 74.8894091,15.2118528 L74.8894091,14.2727224 C74.893293,14.2361453 74.8790801,14.1999716 74.8513081,14.1757509 C74.8235361,14.1515301 74.7856779,14.142291 74.7498206,14.1509833 L74.7323721,14.133592 Z" id="Shape" fill="#231815"></path>
            <path d="M99.8931951,11.9509833 L98.7154173,11.9509833 C98.575687,11.9509833 98.4624132,12.0638854 98.4624132,12.2031572 L98.4624132,18.2901137 C98.4624132,18.8466355 98.3489976,19.1596789 97.4329482,19.1596789 L96.9007671,19.1596789 C96.8135243,19.1596789 96.8222486,19.2292441 96.8222486,19.2292441 L96.8222486,20.2118528 C96.8222486,20.384742 96.9628644,20.5248963 97.1363227,20.5248963 L98.1047177,20.5248963 C100.303236,20.5248963 101.001179,20.2292441 101.001179,18.3248963 L101.001179,13.0727224 C101.001253,12.4599317 100.507929,11.9604839 99.8931951,11.9509833 Z M109.847598,9.34228763 L96.8396972,9.34228763 C97.302084,8.75967893 97.7121252,8.15967893 98.1047177,7.60315719 L107.369903,7.60315719 C107.485542,7.60315719 107.579286,7.50972097 107.579286,7.39446154 L107.579286,6.29011371 C107.579286,6.17485429 107.485542,6.08141806 107.369903,6.08141806 L99.0382157,6.08141806 C99.3959112,5.44663545 99.701261,4.84663545 99.9629894,4.34228763 L109.071138,4.34228763 C109.186776,4.34228763 109.28052,4.2488514 109.28052,4.13359198 L109.28052,2.98576589 C109.28052,2.87050646 109.186776,2.77707024 109.071138,2.77707024 L100.643483,2.77707024 C100.730726,2.55098328 100.809244,2.35967893 100.852866,2.2205485 C100.896487,2.08141806 100.913936,1.85533111 100.67838,1.80315719 C100.181096,1.69880937 99.1778042,1.49011371 98.8811787,1.4205485 C98.779986,1.3887751 98.6698635,1.40341543 98.5805639,1.46051399 C98.4912642,1.51761255 98.4320032,1.61127679 98.4187918,1.71620067 L98.2530305,2.24663545 C98.2006848,2.41185284 98.1396149,2.59446154 98.0698206,2.78576589 L90.5494914,2.78576589 C90.4338525,2.78576589 90.3401087,2.87920211 90.3401087,2.99446154 L90.3401087,4.10750502 C90.3401087,4.22276444 90.4338525,4.31620067 90.5494914,4.31620067 L97.4416725,4.31620067 C97.1886684,4.87272241 96.9007671,5.47272241 96.5692445,6.05533111 L92.2071046,6.05533111 C92.0914657,6.05533111 91.9977219,6.14876733 91.9977219,6.26402676 L91.9977219,7.40315719 C91.9977219,7.51841662 92.0914657,7.61185284 92.2071046,7.61185284 L95.6968165,7.61185284 C95.3216725,8.20315719 94.9116313,8.80315719 94.4754173,9.35098328 L89.7555819,9.35098328 C89.6399431,9.35098328 89.5461992,9.44441951 89.5461992,9.55967893 L89.5461992,10.6727224 C89.5461992,10.7879818 89.6399431,10.8814181 89.7555819,10.8814181 L93.1667754,10.8814181 C92.1917579,11.9332285 91.0329249,12.7995014 89.7468577,13.4379398 C89.6596119,13.4555958 89.5866719,13.5149164 89.5518133,13.5965652 C89.5169548,13.6782139 89.5246431,13.7717319 89.5723721,13.8466355 L89.8166519,14.4466355 C89.8445076,14.5175127 89.9020336,14.5727273 89.9741438,14.5977995 C90.0462541,14.6228717 90.1257544,14.6153001 90.1917959,14.5770702 C90.9870829,14.2876607 91.7478126,13.9114602 92.4601087,13.4553311 C93.8736184,13.8587991 95.2557211,14.3644884 96.5954173,14.9683746 C96.7524544,15.0466355 96.8135243,14.9248963 96.8135243,14.9248963 L97.4154996,13.6640268 C97.4433952,13.6261098 97.4527115,13.5777023 97.4408727,13.5321883 C97.4290339,13.4866744 97.3972944,13.4488761 97.3544297,13.4292441 C96.217727,13.0077385 95.0513095,12.6705874 93.8647177,12.4205485 C94.4436675,11.9458369 94.991511,11.4346451 95.5048824,10.8901137 L103.635911,10.8901137 C104.144723,11.4124441 104.693059,11.8950247 105.276076,12.333592 C104.186278,12.7745299 103.041815,13.067019 101.873607,13.2031572 C101.760191,13.2031572 101.71657,13.2901137 101.742742,13.4205485 C101.908504,13.9248963 101.960849,14.2901137 102.126611,14.8118528 C102.178956,14.9770702 102.257475,14.9770702 102.370891,14.9509833 C103.838787,14.5613085 105.247335,13.9763393 106.558545,13.2118528 C107.440209,13.7602339 108.375628,14.2176676 109.350314,14.5770702 C109.418021,14.611934 109.497342,14.6167086 109.568765,14.5902197 C109.640189,14.5637307 109.697085,14.5084366 109.725458,14.4379398 L109.969738,13.8379398 C110.013682,13.7635909 110.019258,13.6727671 109.984739,13.5936322 C109.950219,13.5144973 109.879776,13.4566171 109.795253,13.4379398 C108.40203,12.79208 107.120951,11.9290882 106.000191,10.8814181 L109.795253,10.8814181 C109.910892,10.8814181 110.004635,10.7879818 110.004635,10.6727224 L110.004635,9.59446154 C110.011206,9.49102539 109.940621,9.39845548 109.838874,9.37707024 L109.847598,9.34228763 Z M97.6336066,16.8727224 C97.5725367,16.4292441 97.5550881,16.4814181 97.4678453,16.0031572 C97.4611846,15.9568591 97.4329344,15.9164341 97.3916731,15.8941575 C97.3504118,15.871881 97.3010076,15.8703813 97.2584626,15.8901137 C95.2191509,16.8585781 93.0809629,17.6049255 90.881014,18.1162007 C90.823894,18.1253456 90.7750354,18.1621147 90.7505705,18.2143674 C90.7261056,18.26662 90.7292158,18.3275616 90.7588741,18.3770702 L91.3870223,19.733592 C91.4530111,19.8594597 91.605657,19.9127105 91.7359935,19.8553311 C93.7473971,19.1152262 95.6889016,18.1985839 97.5376396,17.1162007 C97.6105367,17.0722055 97.6539086,16.9923971 97.6510552,16.907505 L97.6336066,16.8727224 Z M108.381919,18.2901137 C106.460468,17.3952666 104.452133,16.698881 102.388339,16.2118528 C102.205129,16.1509833 102.170232,16.2901137 102.170232,16.2901137 L101.795088,17.107505 C101.795088,17.107505 101.707845,17.2814181 101.882331,17.3422876 C103.681438,18.0627324 105.430196,18.9022866 107.116899,19.8553311 C107.291892,19.9522602 107.511241,19.9121781 107.640356,19.7596789 C107.963154,19.2814181 108.102742,19.0640268 108.425541,18.5770702 C108.459365,18.5337655 108.47385,18.4785097 108.465602,18.4242483 C108.457353,18.3699868 108.427096,18.3214878 108.381919,18.2901137 L108.381919,18.2901137 Z" id="Shape" fill="#231815"></path>
            <path d="M160.666528,2.78576589 L155.964142,2.78576589 C155.906014,2.20928109 155.420004,1.76992741 154.83871,1.76837458 L153.80052,1.76837458 C153.655972,1.76837458 153.538792,1.88516987 153.538792,2.02924415 L153.538792,2.78576589 L147.309656,2.78576589 L147.309656,2.02924415 C147.309656,1.88516987 147.192476,1.76837458 147.047928,1.76837458 L146.009738,1.76837458 C145.426653,1.76948274 144.937895,2.207921 144.875582,2.78576589 L140.181919,2.78576589 C140.066281,2.78576589 139.972537,2.87920211 139.972537,2.99446154 L139.972537,4.06402676 C139.972537,4.11937629 139.994597,4.17245884 140.033863,4.21159687 C140.07313,4.2507349 140.126388,4.27272241 140.181919,4.27272241 L144.823236,4.27272241 L144.823236,5.14228763 C144.823236,5.28636191 144.940416,5.40315719 145.084965,5.40315719 L147.013031,5.40315719 C147.157579,5.40315719 147.274759,5.28636191 147.274759,5.14228763 L147.274759,4.27272241 L153.547516,4.27272241 L153.547516,5.14228763 C153.547516,5.28636191 153.664696,5.40315719 153.809244,5.40315719 L155.728586,5.40315719 C155.873135,5.40315719 155.990314,5.28636191 155.990314,5.14228763 L155.990314,4.27272241 L160.675253,4.27272241 C160.730784,4.27272241 160.784042,4.2507349 160.823309,4.21159687 C160.862576,4.17245884 160.884636,4.11937629 160.884636,4.06402676 L160.884636,2.99446154 C160.884636,2.93757192 160.861432,2.88312779 160.820257,2.8437299 C160.779082,2.80433201 160.723556,2.78339547 160.666528,2.78576589 Z M160.666528,11.133592 C160.782167,11.133592 160.875911,11.0401557 160.875911,10.9248963 L160.875911,9.86402676 C160.875911,9.74876733 160.782167,9.65533111 160.666528,9.65533111 L157.255335,9.65533111 L157.255335,7.70750502 L159.131055,7.70750502 C159.243273,7.70284059 159.331811,7.61075659 159.331714,7.49880937 L159.331714,6.42924415 C159.331811,6.31729692 159.243273,6.22521292 159.131055,6.2205485 L141.682496,6.2205485 C141.626964,6.2205485 141.573706,6.24253601 141.53444,6.28167404 C141.495173,6.32081207 141.473113,6.37389462 141.473113,6.42924415 L141.473113,7.49880937 C141.473113,7.61406879 141.566857,7.70750502 141.682496,7.70750502 L143.549491,7.70750502 L143.549491,9.65533111 L140.138298,9.65533111 C140.02608,9.65999553 139.937639,9.75207953 139.937639,9.86402676 L139.937639,10.9248963 C139.937639,11.0368435 140.02608,11.1289275 140.138298,11.133592 L143.549491,11.133592 L143.549491,13.0727224 L141.682496,13.0727224 C141.566857,13.0727224 141.473113,13.1661586 141.473113,13.2814181 L141.473113,14.3509833 C141.477793,14.4628333 141.57018,14.5510805 141.682496,14.5509833 L149.185376,14.5509833 L149.185376,16.5509833 L140.164471,16.5509833 C140.055547,16.55542 139.968264,16.6424172 139.963812,16.7509833 L139.963812,17.8205485 C139.963715,17.9324957 140.052253,18.0245797 140.164471,18.0292441 L149.185376,18.0292441 L149.185376,19.3944615 C149.190169,20.0201874 149.700453,20.5248963 150.328257,20.5248963 L151.366446,20.5248963 C151.510995,20.5248963 151.628175,20.408101 151.628175,20.2640268 L151.628175,18.0031572 L160.657804,18.0031572 C160.773443,18.0031572 160.867187,17.909721 160.867187,17.7944615 L160.867187,16.7248963 C160.862507,16.6130463 160.77012,16.5247991 160.657804,16.5248963 L151.636899,16.5248963 L151.636899,14.5683746 L159.131055,14.5683746 C159.239979,14.5639378 159.327262,14.4769407 159.331714,14.3683746 L159.331714,13.2901137 C159.331811,13.1781665 159.243273,13.0860825 159.131055,13.0814181 L157.255335,13.0814181 L157.255335,11.1422876 L160.666528,11.133592 Z M149.185376,13.0727224 L146.018463,13.0727224 L146.018463,11.1422876 L149.185376,11.1422876 L149.185376,13.0727224 Z M149.185376,9.64663545 L146.018463,9.64663545 L146.018463,7.70750502 L149.185376,7.70750502 L149.185376,9.64663545 Z M154.803812,13.0727224 L151.636899,13.0727224 L151.636899,11.1422876 L154.803812,11.1422876 L154.803812,13.0727224 Z M154.803812,9.64663545 L151.636899,9.64663545 L151.636899,7.70750502 L154.803812,7.70750502 L154.803812,9.64663545 Z" id="Shape" fill="#231815"></path>
            <path d="M47.2596149,16.0901137 C46.4495155,15.3113483 45.9295259,14.2809152 45.7852116,13.1683746 C45.5409866,10.5340464 43.7576842,8.29261619 41.2398618,7.45533111 C41.0828247,7.40315719 40.934512,7.34228763 40.7687507,7.27272241 C39.8901412,6.88571142 39.1571311,6.23121128 38.6749235,5.40315719 C37.328692,2.94849963 34.6100727,1.56776158 31.8263638,1.92489632 C30.7068182,2.06391423 29.5733457,1.81524574 28.6158289,1.2205485 C26.2883277,-0.406849499 23.1874453,-0.406849499 20.8599441,1.2205485 C19.9048533,1.81328123 18.7748075,2.06187348 17.6581334,1.92489632 C14.8748631,1.57028018 12.1575919,2.95033357 10.8095737,5.40315719 C10.2379613,6.37577269 9.32854775,7.10586604 8.25335973,7.45533111 C5.74225009,8.30214372 3.96307192,10.5383901 3.70800993,13.1683746 C3.56437131,14.2811214 3.04427494,15.3117661 2.23360664,16.0901137 C0.79301654,17.4760406 -0.0142704014,19.3901988 0,21.3857659 L0,21.4814181 C0.0432655684,25.5315155 3.35217255,28.7907641 7.41582886,28.7857659 L18.0681745,28.7857659 C19.0828307,28.7953071 19.9003185,29.6178725 19.9002733,30.6292441 L19.9002733,31.0553311 C19.9003918,32.0255578 19.1810594,32.8465465 18.2164873,32.9770702 L9.59689882,34.4553311 C9.29450225,34.4798876 9.05445796,34.7191442 9.02982063,35.0205485 L9.02982063,36.0814181 L40.5070223,36.0814181 L40.5070223,35.0205485 C40.4818115,34.7161048 40.2370151,34.4758085 39.9312198,34.4553311 L31.2680099,32.9683746 C30.3034378,32.8378508 29.5841054,32.0168621 29.5842239,31.0466355 L29.5842239,30.6205485 C29.5841227,29.6125248 30.3963573,28.7913347 31.4075984,28.7770702 L42.0773926,28.7770702 C46.1729363,28.7770702 49.4932215,25.4678706 49.4932215,21.3857659 C49.5074919,19.3901988 48.700205,17.4760406 47.2596149,16.0901137 Z" id="Shape" fill="#008F43"></path>
            <path d="M15.1804379,11.0814181 C24.3409317,6.98576589 33.6322898,5.80315719 40.7687507,7.27272241 C39.8901412,6.88571142 39.1571311,6.23121128 38.6749235,5.40315719 C37.328692,2.94849963 34.6100727,1.56776158 31.8263638,1.92489632 C30.7068182,2.06391423 29.5733457,1.81524574 28.6158289,1.2205485 C26.2883277,-0.406849499 23.1874453,-0.406849499 20.8599441,1.2205485 C19.9048533,1.81328123 18.7748075,2.06187348 17.6581334,1.92489632 C14.8748631,1.57028018 12.1575919,2.95033357 10.8095737,5.40315719 C10.2379613,6.37577269 9.32854775,7.10586604 8.25335973,7.45533111 C5.74225009,8.30214372 3.96307192,10.5383901 3.70800993,13.1683746 C3.56437131,14.2811214 3.04427494,15.3117661 2.23360664,16.0901137 C0.79301654,17.4760406 -0.0142704014,19.3901988 0,21.3857659 L0,21.4814181 C4.35288664,17.0867243 9.5045183,13.5573371 15.1804379,11.0814181 Z" id="Shape" fill="url(#linearGradient-1)"></path>
            <path d="M23.2678453,16.4466355 C31.1196972,12.9683746 39.0238947,11.5770702 45.610726,12.1596789 C45.0477353,9.95565565 43.4073804,8.18334573 41.2485861,7.44663545 L41.2485861,7.44663545 C41.091549,7.39446154 40.9432363,7.33359198 40.777475,7.26402676 C33.6322898,5.80315719 24.3409317,6.98576589 15.1804379,11.0814181 C9.50522702,13.5547439 4.35364536,17.0811458 0.000191001028,21.4727224 C0.034408892,25.1355428 2.75500907,28.2208568 6.39508812,28.7248963 C11.031974,23.4310224 16.7965361,19.2361658 23.2678453,16.4466355 Z" id="Shape" fill="url(#linearGradient-2)"></path>
            <path d="M47.2596149,16.0901137 C46.4495155,15.3113483 45.9295259,14.2809152 45.7852116,13.1683746 C45.7523862,12.8311389 45.6940585,12.4968552 45.610726,12.1683746 C39.0151704,11.5770702 31.0935243,12.9509833 23.2678453,16.4553311 C16.7973817,19.2423408 11.0328903,23.4341751 6.39508812,28.7248963 C6.73331099,28.7715904 7.07437713,28.7948346 7.41582886,28.7944615 L18.0681745,28.7944615 C19.0828307,28.8040028 19.9003185,29.6265681 19.9002733,30.6379398 L19.9002733,31.0640268 C19.9003918,32.0342535 19.1810594,32.8552421 18.2164873,32.9857659 L9.59689882,34.4553311 C9.29450225,34.4798876 9.05445796,34.7191442 9.02982063,35.0205485 L9.02982063,36.0814181 L40.5070223,36.0814181 L40.5070223,35.0205485 C40.4818115,34.7161048 40.2370151,34.4758085 39.9312198,34.4553311 L31.2680099,32.9683746 C30.3034378,32.8378508 29.5841054,32.0168621 29.5842239,31.0466355 L29.5842239,30.6205485 C29.5841227,29.6125248 30.3963573,28.7913347 31.4075984,28.7770702 L42.0773926,28.7770702 C46.1729363,28.7770702 49.4932215,25.4678706 49.4932215,21.3857659 C49.5074919,19.3901988 48.700205,17.4760406 47.2596149,16.0901137 L47.2596149,16.0901137 Z" id="Shape" fill="#009043"></path>
        </g>
    </g>
</svg>